<?xml version="1.0" ?><svg data-name="Layer 2" id="Layer_2" viewBox="0 0 16 16" xmlns="http://www.w3.org/2000/svg"><title/><path d="M.5,7.1338V8.8662a.5.5,0,0,0,.5.5h9.2852L6.7734,12.8447a.5.5,0,0,0,0,.711l1.3125,1.3a.5.5,0,0,0,.7032,0l6.5625-6.5a.5.5,0,0,0,0-.711l-6.5625-6.5a.4988.4988,0,0,0-.7032,0l-1.3125,1.3a.5.5,0,0,0,0,.711l3.5118,3.4785H1A.5.5,0,0,0,.5,7.1338Zm1,.5h10a.5.5,0,0,0,.3516-.8555L7.8359,2.8l.6016-.5957L14.2891,8,8.4375,13.7959,7.8359,13.2l4.0157-3.9785A.5.5,0,0,0,11.5,8.3662H1.5Z"/></svg>