<?xml version="1.0" ?>
<svg data-name="Layer 2" id="Layer_2" viewBox="0 0 16 16" xmlns="http://www.w3.org/2000/svg"><title/><path d="M9.375,2.8a.5.5,0,0,0-.1484-.3555l-1.3125-1.3a.4988.4988,0,0,0-.7032,0l-6.5625,6.5a.5.5,0,0,0,0,.711l6.5625,6.5a.5.5,0,0,0,.7032,0l1.3125-1.3a.5.5,0,0,0,0-.711L5.7148,9.3662H15a.5.5,0,0,0,.5-.5V7.1338a.5.5,0,0,0-.5-.5H5.7148L9.2266,3.1553A.5.5,0,0,0,9.375,2.8ZM4.1484,6.7783A.5.5,0,0,0,4.5,7.6338h10v.7324H4.5a.5.5,0,0,0-.3516.8555L8.1641,13.2l-.6016.5957L1.7109,8,7.5625,2.2041,8.1641,2.8Z"/></svg>